<svg width="496" height="79" viewBox="0 0 496 79" xmlns="http://www.w3.org/2000/svg">
  <title>
    eReolenGo_roed
  </title>
  <g fill="none" fill-rule="evenodd">
    <path d="M99.85 29.2c0-4.73-1.78-6.62-7.53-6.62h-11.2v18.54h11.2c6.03 0 7.53-2.17 7.53-6.9V29.2zM89.41 53.42h-8.29V73H67V10h26.08c15.25 0 20.9 6.06 20.9 17.88v7.76c0 7.85-2.83 13.14-9.14 15.79L120 73h-16.76L89.41 53.42zM147.27 42.57c0-3.22-.93-5.87-5.61-5.87-4.68 0-6.18 2.65-6.18 5.87v1.99h11.8v-2zm-11.8 12.2v1.33c0 5.3 2.07 6.73 8.24 6.73 4.21 0 9.83-.76 13.86-2l1.96 10.23A53.66 53.66 0 0 1 142.4 74c-14.79 0-20.4-7.39-20.4-18.75V44.46c0-9.94 4.4-18.46 19.56-18.46C156.72 26 160 35.09 160 45.12v9.66h-24.52zM194.26 55.73V44.27c0-4.35-2.3-6.82-7.26-6.82s-7.25 2.47-7.25 6.82v11.46c0 4.35 2.29 6.81 7.25 6.81s7.26-2.46 7.26-6.81M166 55.35v-10.7c0-9.47 4.49-18.65 21-18.65 16.51 0 21 9.18 21 18.65v10.7c0 9.47-4.49 18.65-21 18.65-16.51 0-21-9.18-21-18.65M229 6l-14 1.9V73h14V6M261.27 42.57c0-3.22-.93-5.87-5.61-5.87-4.69 0-6.18 2.65-6.18 5.87v1.99h11.8v-2zm-11.8 12.2v1.33c0 5.3 2.07 6.73 8.24 6.73 4.22 0 9.84-.76 13.85-2l1.97 10.23A53.68 53.68 0 0 1 256.4 74c-14.78 0-20.4-7.39-20.4-18.75V44.46c0-9.94 4.4-18.46 19.56-18.46C270.73 26 274 35.09 274 45.12v9.66h-24.52zM26.85 35.3c.52-3 2.28-5.21 5.86-5.21 2.08 0 3.32 1.04 3.32 2.47 0 2.09-1.5 3.45-5.02 4.56-3.18.98-3.64 1.1-4.75 1.43l.59-3.25zm5.22-26.2C12.67 9.1 0 23.2 0 41.58c0 18.84 13.36 32.48 33.81 32.48 4.92 0 11.17-1.04 15.63-3.12l-2.46-7.3a42.6 42.6 0 0 1-13.45 2.28c-13.92 0-24.72-9-24.72-24.34 0-14.3 9.13-24.62 22.86-24.62 14.3 0 21 7.02 18.52 18.72 0 0-1.35 7.1-10.9 11.55h-.01c-1.36.63-1.35.62-3.39 1.47a28.14 28.14 0 0 1-8.65 1.77c-2.87 0-2.8-1.56-2.48-3.39l.26-1.5c1.5-.39 2.28-.58 6.13-1.75 8.65-2.67 12.37-5.93 12.37-11.6 0-5.14-4.1-8.26-10.16-8.26-9.57 0-13.09 4.55-14.45 12.04l-1.7 9.64c-1.17 6.64.52 11.6 8.92 11.6 2.98 0 6.16-.46 9.04-1.27 22.35-5.84 24.1-20.57 24.15-20.94C61.44 21.53 50.73 9.1 32.07 9.1zM309 72.77v-30.5c0-2.08-.94-3.31-3.32-3.31-2.46 0-7 1.7-9.94 3.31v30.5H282.1V26.65h10.14l1.42 3.5c5.68-2.74 13.07-4.45 18.37-4.45 7.86 0 10.6 5.87 10.6 14.78v32.29H309M470.13 30.08l.05-.78-.05.78zm-.23 2.27c.04-.33.1-.67.13-1l-.13 1zm-.33 1.83c.07-.35.15-.7.21-1.06l-.2 1.06zm-.48 1.95c.11-.4.23-.82.33-1.24-.1.42-.22.83-.33 1.24zm-.69 2.12a30.13 30.13 0 0 1 0 0zm-.66 1.65l.49-1.2-.49 1.2zm-.74 1.58l.46-.98-.46.98zm-.88 1.63l.4-.72-.4.72zm-.95 1.56l.41-.67v.01l-.4.66zm-1.5 2.13l.3-.39-.3.38zm-1.32 1.66l.37-.45-.37.45zm-4.18 4.28l.26-.23-.26.23zm-1.3 1.11c.26-.2.5-.42.76-.64l-.76.64zm-1.33 1.05l.75-.58c-.25.2-.5.4-.75.58zm-1.35 1l.75-.55-.75.55zm-1.37.92l.75-.5-.75.5zm-1.38.87a46.52 46.52 0 0 1 0 0zm-1.39.8l.76-.43c-.26.15-.5.3-.76.43zm-1.38.74l.75-.4-.75.4zm-1.39.67l.75-.36-.75.36zm-2.72 1.13l.74-.28c-.25.1-.5.2-.74.28zm-1.33.47l.73-.25-.73.25zm-1.24.37l.66-.19-.65.19zm-2.44.56l.58-.1-.58.1zm-1.76.24a16.01 16.01 0 0 1 1.15-.14c-.4.06-.78.1-1.15.14zm-4.09-.05l.36.03-.36-.03zm-1.93-.25l.35.06-.35-.06zm3.5.35l.43.01-.42-.01zm-12.9-3.25l.26.12-.1-.05-.15-.07zm-2.37-1.2c-.02 0-.03-.02-.05-.03l.05.03zm-48.75 14l.3.11-.12-.04-.19-.07zm-4.56-2.1zm-2.54-22.95zm-.02-3.94l-.07.81-.02.41v.97c-.02-.76.01-1.5.08-2.2zm4.99-9.8c-.26.23-.51.48-.76.73l-.16.17-.6.67c.47-.57.98-1.09 1.52-1.57zm10.55-5a19.02 19.02 0 0 0-2.34.55l-.1.03a22.89 22.89 0 0 0 2.44-.57zm-5 1.5l-.15.07a23.13 23.13 0 0 0 .15-.06zm-2.76 1.43l-.15.1c-.41.25-.81.52-1.2.81l-.15.1a19.63 19.63 0 0 1 2.81-1.75l-.09.05c-.4.21-.81.44-1.22.7zm-2.8 39.97l-.21-.1.2.1zm.86-13.38l.02.02a18.04 18.04 0 0 1-.97-.88l.18.16c.25.24.5.47.77.7zm-2.78-2.98zm-.76-18.41a15.07 15.07 0 0 0 0 0zm0 17.27zm-.78-15.91a14.76 14.76 0 0 0 0 0zm-.28 13.85l.38.84.15.28a16.01 16.01 0 0 1-.53-1.12zm-.34-12.44a14.3 14.3 0 0 0 0 0zm-.5 1.62zm.68 10.43zm-.93-9.28a15.79 15.79 0 0 1 .05-.27l-.05.27zm-.1.7l.06-.5-.07.5zm.2 5.78l.08.38a16.28 16.28 0 0 0-.3-1.68l.05.31c.05.34.1.67.17 1zm6.41 10.03l.27.2a19.4 19.4 0 0 0-.27-.2zm9.75 15.63h.16-.16zm-2.23-.2c.1 0 .19.02.28.03l-.28-.04zm-2.31-.41l.32.06-.32-.06zm-2.37-.61l.34.1-.34-.1zm43.62-43.72zm-.09 1.31zm5.47-11.86c-.28.25-.56.52-.82.79l-.17.18a17.94 17.94 0 0 0 .99-.97zm8.81-4.78l-.1.03c-.41.12-.84.26-1.28.42l-.14.05c-.44.16-.88.33-1.32.53l-.16.07c-.44.19-.88.4-1.32.62l-.15.08c1.53-.8 3.07-1.39 4.47-1.8zm4.39-.83a26.14 26.14 0 0 1-1.86.24 20.65 20.65 0 0 0 1.86-.24zm3.49-.06zm9.55 2.38zm-1.78-.8zm-1.88-.63zm-2-.49zm-1.85-.29zm-1.86-.16zm-8.05.88c.45-.13.89-.25 1.3-.35l-.04.02c-.4.1-.82.2-1.26.33zm-8.69 4.66a21.08 21.08 0 0 1 2.87-2.1l-.17.1c-.43.27-.87.56-1.29.87l-.15.11c-.43.32-.85.66-1.26 1.02zm.8 26.52a19.5 19.5 0 0 1-.42-.38l.41.38zm3.02 15.91l-.47-.15.47.16zm1.78.53l-.07-.01.07.01zm2.09.5l-.47-.1.47.1zm-5.85-16.1zm-.79-.63zm.94 15.06l-.42-.16.42.16zm-4.2-18.5l.23.31a18.7 18.7 0 0 0-.23-.3zm-.81-19.8zm-.01 18.58zm-.83-17.12zm-.67 1.53zm.22 13.07a40.44 40.44 0 0 0 .55 1.2l.15.31c-.25-.48-.48-.99-.7-1.51zm-1.29-6.13zm1.25 6.02zm-.73-11.22zm-.2.94zm-.18 1.05zm.23 6.22l.08.41a18.5 18.5 0 0 0-.08-.4zm20.3 15.2l-.4.02c-2.5.12-5.61-.48-8.65-1.85-.2-.17-.38-.34-.56-.52l-.2-.2a19.38 19.38 0 0 1-1.42-1.64l-.23-.31c-.23-.32-.46-.64-.67-.98l-.06-.09c-.23-.36-.44-.74-.65-1.13l-.16-.34-.42-.9-.16-.37c-.16-.4-.3-.8-.44-1.23l-.02-.06c-.14-.44-.25-.9-.36-1.36l-.08-.4c-.07-.35-.13-.7-.18-1.07l-.06-.44a18.85 18.85 0 0 1 .4-6.7 15.74 15.74 0 0 1 1.13-3.11l.08-.16c.25-.49.5-.96.8-1.4l.04-.07c.34-.53.71-1.02 1.1-1.5l.15-.18c.21-.25.43-.49.65-.72l.17-.18c.27-.27.54-.53.82-.78l.14-.12c.4-.36.82-.7 1.25-1.02l.16-.11a20.91 20.91 0 0 1 4.26-2.44l.17-.07c.44-.19.88-.36 1.31-.52l.14-.05c.44-.16.87-.3 1.3-.42l.1-.04 1.25-.33.06-.01a20.65 20.65 0 0 1 3.06-.48c3.5-.3 7.73.1 11.52 1.63 2.1 2.2 3.6 5.16 4.03 9.06 1.42 13.04-12.02 21.94-19.38 22.58zM463 9.72l-.36-.36.19.18.17.18zm1.22 1.32l-.39-.44.14.15.25.3zm.96 1.2l-.27-.34.1.11.17.23zm1.05 1.52v.01l-.2-.3c.03.03.06.07.08.12l.12.17zm1.08 1.93l-.07-.15.04.07c0 .03.02.05.03.08zm.81 1.78l-.2-.48.12.26.08.22zm.55 1.43l.1.35-.22-.69.08.22.04.12zm.62 2.12l-.17-.62.07.25.1.37zm.38 1.76l-.07-.37.03.15.04.22zm.35 2.34v-.02-.01.03zm.15 2.68v-.6.6zM490.71 8.1l-13.68-1.13-1.94 17.77-.06-.24c-.16-.6-.33-1.18-.52-1.74l-.05-.13c-.18-.52-.38-1.03-.59-1.53l-.2-.47c-.18-.4-.37-.78-.56-1.16l-.21-.42c-.27-.5-.54-.97-.83-1.44l-.12-.17a23.59 23.59 0 0 0-1.87-2.52l-.19-.22-.08-.1c-.37-.41-.76-.82-1.15-1.2l-.25-.25-1.02-.92-.2-.17-.15-.13-.76-.6-.37-.28c-.38-.28-.76-.55-1.16-.8l-5.82-3.84h.01C451.58 1.56 441.99.3 434.46.96c-1.07.09-2.1.22-3.07.39-9.78 1.66-28.77 9.7-27.96 31.04.09 2.25.4 4.36.9 6.35l-3.6.31-17.23 1.5.66 11.1 5.41 3.56 7.61-.66c-3.97 4.87-9.91 7.87-13.92 8.22l-.37.02c-2.32.12-5.23-.44-8.06-1.72l-.22-.2-.17-.16c-.3-.29-.58-.59-.85-.9l-.21-.24c-.2-.23-.38-.46-.56-.7l-.21-.28-.63-.9-.05-.09c-.22-.34-.42-.7-.6-1.05l-.16-.32c-.14-.27-.27-.55-.39-.84l-.14-.34a15.9 15.9 0 0 1-.42-1.14l-.02-.06c-.12-.4-.23-.83-.33-1.26l-.07-.38c-.07-.33-.13-.66-.18-1l-.05-.4c-.05-.46-.1-.92-.11-1.4v-1.33c0-.14 0-.28.02-.41a16.26 16.26 0 0 1 .18-1.74l.08-.48.1-.47.17-.64c.08-.3.17-.61.27-.9l.16-.48c.17-.44.35-.86.55-1.27l.08-.15c.22-.45.47-.88.73-1.3l.05-.06c.31-.49.65-.95 1.02-1.39l.14-.17.6-.67.16-.17c.25-.25.5-.5.76-.72l.13-.11c.38-.34.77-.66 1.17-.95l.14-.1c.4-.3.8-.56 1.2-.82l.15-.1 1.23-.69.16-.08c.4-.2.82-.4 1.23-.58l.15-.07c.41-.17.82-.34 1.22-.48l.13-.05c.4-.15.81-.28 1.2-.4l.1-.02a21.2 21.2 0 0 1 5.43-.85l-.68-11.43-5.41-3.56a40.47 40.47 0 0 0-4.81.48c-9.09 1.55-26.75 9.02-26 28.86.41 10.67 6.2 18.17 13.22 22.75l-.12-.07 5.41 3.56a34.14 34.14 0 0 0 7.06 3.57 29.17 29.17 0 0 0 11.8 1.92c.34-.03.7-.08 1.06-.13.12-.02.24-.05.37-.06l.74-.14.45-.1.7-.16.5-.14.69-.2c.17-.05.35-.1.53-.17.23-.07.46-.14.69-.23l.55-.2.7-.26.56-.23.7-.3.58-.27a39.15 39.15 0 0 0 5.84-3.32l.58-.4.69-.5c.19-.13.38-.27.56-.42.24-.17.47-.36.7-.54l.54-.43.7-.6c.17-.14.34-.28.5-.44l.1-.08.14-.13c.6-.55 1.2-1.11 1.77-1.7l.2-.19a38.2 38.2 0 0 0 1.68-1.88l.18-.2c.05-.06.1-.14.17-.21.3-.37.6-.75.88-1.14l.3-.39c.38-.51.74-1.04 1.1-1.58l.04-.07c.12-.18.22-.37.33-.55.17-.27.35-.55.5-.83l.37-.67.45-.84.07-.13.36-.78.26-.57.2-.46c.31.22.63.44.96.65l-.13-.07 5.83 3.83c6.51 4.3 14.03 6.22 19.65 5.95a15.99 15.99 0 0 0 1.78-.18l.4-.07c.26-.04.52-.08.8-.14l.49-.11.74-.17.55-.15.73-.21.58-.19.73-.24.6-.22.74-.28.62-.26a38.84 38.84 0 0 0 6.28-3.27 38.94 38.94 0 0 0 1.38-.9l.61-.43.75-.54.6-.45.75-.59.59-.46.75-.64.55-.47.1-.09.15-.15c.65-.58 1.28-1.19 1.9-1.82l.2-.2a41 41 0 0 0 1.82-2.02l.2-.22.17-.23c.33-.4.65-.8.96-1.22l.32-.42c.4-.56.8-1.13 1.17-1.7l.05-.08c.13-.19.24-.4.36-.59l.55-.9.39-.71c.16-.3.33-.6.48-.91l.02-.03-.4 3.54 5.1 4.75 13.68 1.13 4.58-41.86-5.1-4.76z" fill="#A5213D"/>
    <path fill="#A5213D" d="M470 71l5.11 4.83 13.76 1.14L490 63l-5.03-4.85L471.48 57z"/>
    <path d="M428.23 15c-.43.18-6.86 2.95-10.25 10.15-.22.46-2.92 9.38 2.4 16.35 2.47 3.65 3.45 4.29 4.92 5.25 1.47.96 2.7 1.71 5.93 2.7a10.47 10.47 0 0 1-4.23-3.13c-1.4-1.59-4.88-8.93-3.68-14.57 1.2-5.64 6.03-12.65 16.38-14.35 4.44-.74 9.95-.74 14.35 2l-3.84-3.07c-9.16-6.18-21.92-1.36-21.98-1.34z" fill="#79192C"/>
    <path d="M475.6 36.95c.05-.25.08-.5.12-.76l.11-.74.02-.27c.05-.42.08-.84.1-1.27l.05-.78c.02-.48.01-.98 0-1.48 0-.17.02-.35 0-.53v-.08a29.62 29.62 0 0 0-.43-4.07l-.1-.56-.31-1.4-.13-.52c-.16-.6-.33-1.18-.52-1.74l-.05-.13c-.18-.52-.38-1.03-.59-1.53l-.2-.47c-.18-.4-.37-.78-.56-1.16l-.21-.42c-.27-.5-.54-.97-.83-1.44l-.12-.17a23.59 23.59 0 0 0-1.87-2.52l-.19-.22-.08-.1c-.37-.41-.76-.82-1.15-1.2l-.25-.25-1.02-.92-.2-.17-.15-.13-.76-.6-.37-.28c-.38-.28-.76-.55-1.16-.8l-5.82-3.84c.4.26.78.53 1.16.8l.36.29.76.6.35.3c.35.3.69.6 1.02.92l.26.24c.4.39.77.8 1.14 1.21.1.1.18.21.27.32.26.3.52.62.77.94l.3.4c.27.38.54.77.8 1.18l.12.17c.3.46.57.94.83 1.44l.22.41.55 1.16.2.48c.22.5.41 1 .6 1.53l.04.12c.2.57.37 1.15.52 1.75a28.94 28.94 0 0 1 .43 1.91l.12.56a31.26 31.26 0 0 1 .43 4.08v2.09l-.05.78a29.11 29.11 0 0 1-.23 2.27c-.04.26-.07.52-.12.77l-.2 1.06-.16.71c-.1.42-.22.83-.33 1.24l-.13.46c-.17.56-.35 1.12-.56 1.66-.05.16-.12.3-.18.45-.15.4-.3.8-.48 1.2l-.28.6-.46.98-.49.91-.39.72c-.17.3-.36.6-.55.9l-.4.66c-.38.58-.77 1.15-1.17 1.7l-.32.42c-.32.42-.63.82-.96 1.22l-.37.45c-.59.7-1.2 1.37-1.82 2.02l-.2.2c-.62.63-1.26 1.24-1.9 1.83l-.26.23-.54.47-.76.64-.58.47c-.25.2-.5.4-.75.58l-.6.45-.75.55-.62.42a49.14 49.14 0 0 1-3.52 2.17 50.04 50.04 0 0 1-3.4 1.7 43 43 0 0 1-2.1.84l-.59.22-.73.25-.58.18-.73.21-.55.15-.75.17-.49.11-.8.15-.4.07a19.5 19.5 0 0 1-1.78.18c-4.21.2-9.5-.84-14.62-3.17-1.7-.78-3.4-1.7-5.03-2.78l5.83 3.83c6.51 4.3 14.03 6.22 19.65 5.95a15.99 15.99 0 0 0 1.78-.18l.4-.07c.26-.04.52-.08.8-.14l.49-.11.74-.17.55-.15.73-.21.58-.19.73-.24.6-.22.74-.28.62-.26a38.84 38.84 0 0 0 6.28-3.27 38.94 38.94 0 0 0 1.38-.9l.61-.43.75-.54.6-.45.75-.59.59-.46.75-.64.55-.47.1-.09.15-.15c.65-.58 1.28-1.19 1.9-1.82l.2-.2a41 41 0 0 0 1.82-2.02l.2-.22.17-.23c.33-.4.65-.8.96-1.22l.32-.42c.4-.56.8-1.13 1.17-1.7l.05-.08c.13-.19.24-.4.36-.59l.55-.9.39-.71c.16-.3.33-.6.48-.91l.07-.14.4-.84.28-.6c.17-.4.33-.8.48-1.21l.18-.44.01-.04c.2-.53.38-1.07.54-1.62l.13-.46.3-1.08.03-.16.15-.71.22-1.07M397.18 54.57l-7.6.67-5.42-3.63L399.62 50c-.43 1.1-.78 1.9-1.05 2.4-.28.52-.74 1.24-1.39 2.17z" fill="#79192C"/>
    <path fill="#801A2E" d="M382 16.67l5.5 3.65.67 11.44-5.73-3.2z"/>
    <path d="M381.25 28.28a20.09 20.09 0 0 0-4.04.77l-.1.03c-.38.12-.78.25-1.19.4l-.13.04a22.69 22.69 0 0 0-2.59 1.14l-.15.09a20.4 20.4 0 0 0-2.57 1.6l-.14.1c-.4.3-.78.62-1.16.96l-.07.06c-.31.28-.57.53-.81.78l-.16.17-.6.67-.1.12a16.2 16.2 0 0 0-1.83 2.82l-.06.1c-.22.45-.4.88-.56 1.32l-.05.13c-.18.51-.35 1.05-.48 1.6l-.07.3-.1.47a17.36 17.36 0 0 0-.15.99l-.03.18-.02.24c-.03.27-.05.54-.06.82l-.02.41v1.33c.02.49.06.96.11 1.42l.06.4c.04.34.1.68.17 1l.07.38a16.84 16.84 0 0 0 .76 2.47l.15.35c.12.29.25.57.38.84l.16.32c.19.36.38.71.6 1.05l.05.1a16.51 16.51 0 0 0 1.39 1.88l.13.17.07.08c.28.31.56.61.85.9l.18.17c.24.24.5.47.76.7l.14.12.12.1.56.45.26.2c.28.2 1.46 1.1 3 1.82 1.2.55 2.43.98 3.69 1.27-.29-.19-5.94-2-7.87-9.4-1.92-7.42-.05-.26-.07-.39a17.4 17.4 0 0 1-.17-1l-.06-.4c-.05-.46-.1-.93-.1-1.42l-.01-.36v-.97l.02-.41a16.5 16.5 0 0 1 .18-1.74l.08-.49a17.56 17.56 0 0 1 .7-2.5c.17-.44.35-.86.54-1.27l.08-.15a14.5 14.5 0 0 1 1.8-2.76l.14-.18.6-.67.15-.17c.25-.25.5-.5.76-.73l.12-.1c.38-.35.77-.66 1.16-.96l.14-.1c.4-.3.8-.57 1.2-.82l.15-.1c.4-.24.81-.48 1.22-.7l.16-.07c.4-.22.82-.41 1.22-.6l.15-.06 1.22-.49.12-.04c.41-.15.81-.28 1.2-.4l.1-.03a20.9 20.9 0 0 1 5.4-.85l-5.4-3.5c-.47.02-.9-.04-1.35 0z" fill="#79192C"/>
    <path d="M364.2 68.62c6.05 3.99 13.2 5.93 18.42 5.68.2 0 .4-.02.6-.04 11.37-.99 32.16-14.75 29.97-34.92-.06-.47-.12-.91-.2-1.36l5.41 3.57c.08.45.15.89.2 1.36 2.2 20.17-18.6 33.93-29.97 34.92l-.6.04a27.5 27.5 0 0 1-17.1-4.58l-6.73-4.67z" fill="#79192C"/>
    <path fill="#A5213D" d="M490 8.13L485.48 50 472 48.87 476.52 7 490 8.13"/>
    <path fill="#801A2E" d="M490.74 8l5.26 4.8-4.73 42.2-5.27-4.8L490.74 8"/>
    <path fill="#79192C" d="M486 50.2l5.27 4.8-14.11-1.15-5.14-5.02z"/>
    <path fill="#801A2E" d="M490.38 63.24L489 77.04l-5.05-4.8L485 58.15z"/>
    <path fill="#79192C" d="M483.84 72.15L489 77l-13.84-1.15L470 71l13.84 1.15"/>
  </g>
</svg>
